<?xml version="1.0" encoding="UTF-8" standalone="no"?>
<!-- Generated by IcoMoon.io -->

<svg
   xmlns:dc="http://purl.org/dc/elements/1.1/"
   xmlns:cc="http://creativecommons.org/ns#"
   xmlns:rdf="http://www.w3.org/1999/02/22-rdf-syntax-ns#"
   xmlns:svg="http://www.w3.org/2000/svg"
   xmlns="http://www.w3.org/2000/svg"
   xmlns:sodipodi="http://sodipodi.sourceforge.net/DTD/sodipodi-0.dtd"
   xmlns:inkscape="http://www.inkscape.org/namespaces/inkscape"
   version="1.1"
   width="482"
   height="48"
   viewBox="0 0 482 48"
   id="svg9924"
   inkscape:version="0.48.4 r9939"
   sodipodi:docname="sprites.svg">
  <metadata
     id="metadata10022">
    <rdf:RDF>
      <cc:Work
         rdf:about="">
        <dc:format>image/svg+xml</dc:format>
        <dc:type
           rdf:resource="http://purl.org/dc/dcmitype/StillImage" />
      </cc:Work>
    </rdf:RDF>
  </metadata>
  <defs
     id="defs10020" />
  <sodipodi:namedview
     pagecolor="#ffffff"
     bordercolor="#666666"
     borderopacity="1"
     objecttolerance="10"
     gridtolerance="10"
     guidetolerance="10"
     inkscape:pageopacity="0"
     inkscape:pageshadow="2"
     inkscape:window-width="1579"
     inkscape:window-height="782"
     id="namedview10018"
     showgrid="false"
     inkscape:zoom="12.448133"
     inkscape:cx="417.85633"
     inkscape:cy="25.200889"
     inkscape:window-x="134"
     inkscape:window-y="98"
     inkscape:window-maximized="0"
     inkscape:current-layer="g9978" />
  <g
     transform="translate(0 0)"
     id="g9926">
    <path
       d="M8 14.857q-0.232 0-0.393-0.161l-5.571-5.375q-0.089-0.071-0.246-0.232t-0.496-0.585-0.607-0.871-0.478-1.080-0.21-1.232q0-1.964 1.134-3.071t3.134-1.107q0.554 0 1.129 0.192t1.071 0.518 0.853 0.612 0.679 0.607q0.321-0.321 0.679-0.607t0.853-0.612 1.071-0.518 1.129-0.192q2 0 3.134 1.107t1.134 3.071q0 1.973-2.045 4.018l-5.563 5.357q-0.161 0.161-0.393 0.161z"
       fill="#f5f5f5"
       id="path9928" />
  </g>
  <g
     transform="translate(32 0)"
     id="g9930">
    <path
       d="M14.92 5.054q0 0.357-0.25 0.607l-7.679 7.679q-0.25 0.25-0.607 0.25t-0.607-0.25l-4.446-4.446q-0.25-0.25-0.25-0.607t0.25-0.607l1.214-1.214q0.25-0.25 0.607-0.25t0.607 0.25l2.625 2.634 5.857-5.866q0.25-0.25 0.607-0.25t0.607 0.25l1.214 1.214q0.25 0.25 0.25 0.607z"
       fill="#f5f5f5"
       id="path9932"
       style="fill:#94de35;fill-opacity:1" />
  </g>
  <g
     transform="translate(64 0)"
     id="g9934">
    <path
       d="M11.589 11.804q0 0.357-0.25 0.607l-1.214 1.214q-0.25 0.25-0.607 0.25t-0.607-0.25l-2.625-2.625-2.625 2.625q-0.25 0.25-0.607 0.25t-0.607-0.25l-1.214-1.214q-0.25-0.25-0.25-0.607t0.25-0.607l2.625-2.625-2.625-2.625q-0.25-0.25-0.25-0.607t0.25-0.607l1.214-1.214q0.25-0.25 0.607-0.25t0.607 0.25l2.625 2.625 2.625-2.625q0.25-0.25 0.607-0.25t0.607 0.25l1.214 1.214q0.25 0.25 0.25 0.607t-0.25 0.607l-2.625 2.625 2.625 2.625q0.25 0.25 0.25 0.607z"
       fill="#f5f5f5"
       id="path9936" />
  </g>
  <g
     transform="translate(95 0)"
     id="g9938">
    <path
       d="M2.286 11.714v1.714q0 0.116-0.085 0.201t-0.201 0.085h-1.714q-0.116 0-0.201-0.085t-0.085-0.201v-1.714q0-0.116 0.085-0.201t0.201-0.085h1.714q0.116 0 0.201 0.085t0.085 0.201zM2.286 8.286v1.714q0 0.116-0.085 0.201t-0.201 0.085h-1.714q-0.116 0-0.201-0.085t-0.085-0.201v-1.714q0-0.116 0.085-0.201t0.201-0.085h1.714q0.116 0 0.201 0.085t0.085 0.201zM2.286 4.857v1.714q0 0.116-0.085 0.201t-0.201 0.085h-1.714q-0.116 0-0.201-0.085t-0.085-0.201v-1.714q0-0.116 0.085-0.201t0.201-0.085h1.714q0.116 0 0.201 0.085t0.085 0.201zM16 11.714v1.714q0 0.116-0.085 0.201t-0.201 0.085h-12q-0.116 0-0.201-0.085t-0.085-0.201v-1.714q0-0.116 0.085-0.201t0.201-0.085h12q0.116 0 0.201 0.085t0.085 0.201zM2.286 1.429v1.714q0 0.116-0.085 0.201t-0.201 0.085h-1.714q-0.116 0-0.201-0.085t-0.085-0.201v-1.714q0-0.116 0.085-0.201t0.201-0.085h1.714q0.116 0 0.201 0.085t0.085 0.201zM16 8.286v1.714q0 0.116-0.085 0.201t-0.201 0.085h-12q-0.116 0-0.201-0.085t-0.085-0.201v-1.714q0-0.116 0.085-0.201t0.201-0.085h12q0.116 0 0.201 0.085t0.085 0.201zM16 4.857v1.714q0 0.116-0.085 0.201t-0.201 0.085h-12q-0.116 0-0.201-0.085t-0.085-0.201v-1.714q0-0.116 0.085-0.201t0.201-0.085h12q0.116 0 0.201 0.085t0.085 0.201zM16 1.429v1.714q0 0.116-0.085 0.201t-0.201 0.085h-12q-0.116 0-0.201-0.085t-0.085-0.201v-1.714q0-0.116 0.085-0.201t0.201-0.085h12q0.116 0 0.201 0.085t0.085 0.201z"
       fill="#f5f5f5"
       id="path9940"
       style="fill:#94de35;fill-opacity:1" />
  </g>
  <g
     transform="translate(127 0)"
     id="g9942">
    <path
       d="M12.571 12.545q0 1.071-0.652 1.692t-1.732 0.621h-7.804q-1.080 0-1.732-0.621t-0.652-1.692q0-0.473 0.031-0.924t0.125-0.973 0.237-0.969 0.384-0.871 0.554-0.723 0.763-0.478 0.996-0.179q0.080 0 0.375 0.192t0.665 0.429 0.964 0.429 1.192 0.192 1.192-0.192 0.964-0.429 0.665-0.429 0.375-0.192q0.545 0 0.996 0.179t0.763 0.478 0.554 0.723 0.384 0.871 0.237 0.969 0.125 0.973 0.031 0.924zM9.714 4.571q0 1.42-1.004 2.424t-2.424 1.004-2.424-1.004-1.004-2.424 1.004-2.424 2.424-1.004 2.424 1.004 1.004 2.424z"
       fill="#f5f5f5"
       id="path9944"
       style="fill:#94de35;fill-opacity:1" />
  </g>
  <g
     transform="translate(158 0)"
     id="g9946">
    <path
       d="M12.286 8l1.232 1.205q0.268 0.25 0.179 0.625-0.107 0.366-0.464 0.455l-1.679 0.429 0.473 1.661q0.107 0.366-0.17 0.625-0.259 0.277-0.625 0.17l-1.661-0.473-0.429 1.679q-0.089 0.357-0.455 0.464-0.107 0.018-0.17 0.018-0.277 0-0.455-0.196l-1.205-1.232-1.205 1.232q-0.25 0.268-0.625 0.179-0.366-0.098-0.455-0.464l-0.429-1.679-1.661 0.473q-0.366 0.107-0.625-0.17-0.277-0.259-0.17-0.625l0.473-1.661-1.679-0.429q-0.357-0.089-0.464-0.455-0.089-0.375 0.179-0.625l1.232-1.205-1.232-1.205q-0.268-0.25-0.179-0.625 0.107-0.366 0.464-0.455l1.679-0.429-0.473-1.661q-0.107-0.366 0.17-0.625 0.259-0.277 0.625-0.17l1.661 0.473 0.429-1.679q0.089-0.366 0.455-0.455 0.366-0.107 0.625 0.17l1.205 1.241 1.205-1.241q0.259-0.268 0.625-0.17 0.366 0.089 0.455 0.455l0.429 1.679 1.661-0.473q0.366-0.107 0.625 0.17 0.277 0.259 0.17 0.625l-0.473 1.661 1.679 0.429q0.357 0.089 0.464 0.455 0.089 0.375-0.179 0.625z"
       fill="#f5f5f5"
       id="path9948"
       style="fill:#94de35;fill-opacity:1" />
  </g>
  <g
     transform="translate(188 0)"
     id="g9950">
    <path
       d="M2.286 5.143q0 0.232-0.17 0.402t-0.402 0.17q-0.241 0-0.406-0.17t-0.165-0.402q0-0.241 0.165-0.406t0.406-0.165q0.232 0 0.402 0.165t0.17 0.406zM3.714 9.714v-5.714q0-0.232-0.17-0.402t-0.402-0.17h-2.571q-0.232 0-0.402 0.17t-0.17 0.402v5.714q0 0.232 0.17 0.402t0.402 0.17h2.571q0.232 0 0.402-0.17t0.17-0.402zM13.795 8.384q0.491 0.545 0.491 1.33-0.009 0.696-0.513 1.205t-1.201 0.509h-2.473q0.036 0.125 0.071 0.214t0.098 0.196 0.089 0.161q0.161 0.33 0.241 0.509t0.17 0.522 0.089 0.683q0 0.214-0.004 0.348t-0.045 0.402-0.107 0.446-0.214 0.402-0.357 0.362-0.536 0.232-0.737 0.094q-0.232 0-0.402-0.17-0.179-0.179-0.304-0.446t-0.174-0.464-0.112-0.545q-0.080-0.375-0.121-0.54t-0.156-0.433-0.277-0.429q-0.295-0.295-0.902-1.071-0.438-0.571-0.902-1.080t-0.679-0.527q-0.223-0.018-0.384-0.183t-0.161-0.388v-5.723q0-0.232 0.17-0.397t0.402-0.174q0.313-0.009 1.411-0.393 0.688-0.232 1.076-0.353t1.085-0.259 1.286-0.138h1.152q1.188 0.018 1.759 0.696 0.518 0.616 0.438 1.616 0.348 0.33 0.482 0.839 0.152 0.545 0 1.045 0.411 0.545 0.384 1.223 0 0.286-0.134 0.679z"
       fill="#f5f5f5"
       id="path9952" />
  </g>
  <g
     transform="translate(219 0)"
     id="g9954">
    <path
       d="M2.286 12q0-0.232-0.17-0.402t-0.402-0.17q-0.241 0-0.406 0.17t-0.165 0.402q0 0.241 0.165 0.406t0.406 0.165q0.232 0 0.402-0.165t0.17-0.406zM3.714 7.429v5.714q0 0.232-0.17 0.402t-0.402 0.17h-2.571q-0.232 0-0.402-0.17t-0.17-0.402v-5.714q0-0.232 0.17-0.402t0.402-0.17h2.571q0.232 0 0.402 0.17t0.17 0.402zM14.286 7.429q0 0.768-0.491 1.33 0.134 0.393 0.134 0.679 0.027 0.679-0.384 1.223 0.152 0.5 0 1.045-0.134 0.509-0.482 0.839 0.080 1-0.438 1.616-0.571 0.679-1.759 0.696h-1.152q-0.589 0-1.286-0.138t-1.085-0.259-1.076-0.353q-1.098-0.384-1.411-0.393-0.232-0.009-0.402-0.174t-0.17-0.397v-5.723q0-0.223 0.161-0.388t0.384-0.183q0.214-0.018 0.679-0.527t0.902-1.080q0.607-0.777 0.902-1.071 0.161-0.161 0.277-0.429t0.156-0.433 0.121-0.54q0.063-0.348 0.112-0.545t0.174-0.464 0.304-0.446q0.17-0.17 0.402-0.17 0.411 0 0.737 0.094t0.536 0.232 0.357 0.362 0.214 0.402 0.107 0.446 0.045 0.402 0.004 0.348q0 0.339-0.085 0.679t-0.17 0.536-0.246 0.5q-0.027 0.054-0.089 0.161t-0.098 0.196-0.071 0.214h2.473q0.696 0 1.205 0.509t0.509 1.205z"
       fill="#f5f5f5"
       id="path9956" />
  </g>
  <g
     transform="translate(250 0)"
     id="g9958">
    <path
       d="M11.464 8.009q0-0.241-0.161-0.402l-0.813-0.813q-0.161-0.161-0.402-0.161t-0.402 0.161l-1.688 1.687v-4.482q0-0.232-0.17-0.402t-0.402-0.17h-1.143q-0.232 0-0.402 0.17t-0.17 0.402v4.482l-1.688-1.688q-0.17-0.17-0.402-0.17t-0.402 0.17l-0.813 0.813q-0.161 0.161-0.161 0.402t0.161 0.402l4.045 4.045q0.161 0.161 0.402 0.161t0.402-0.161l4.045-4.045q0.161-0.161 0.161-0.402zM13.714 8q0 1.866-0.92 3.442t-2.496 2.496-3.442 0.92-3.442-0.92-2.496-2.496-0.92-3.442 0.92-3.442 2.496-2.496 3.442-0.92 3.442 0.92 2.496 2.496 0.92 3.442z"
       fill="#f5f5f5"
       id="path9960"
       style="fill:#94de35;fill-opacity:1" />
  </g>
  <g
     transform="translate(280 0)"
     id="g9962">
    <path
       d="M7.429 9.714v-1.143q0-0.125-0.080-0.205t-0.205-0.080h-1.714v-1.714q0-0.125-0.080-0.205t-0.205-0.080h-1.143q-0.125 0-0.205 0.080t-0.080 0.205v1.714h-1.714q-0.125 0-0.205 0.080t-0.080 0.205v1.143q0 0.125 0.080 0.205t0.205 0.080h1.714v1.714q0 0.125 0.080 0.205t0.205 0.080h1.143q0.125 0 0.205-0.080t0.080-0.205v-1.714h1.714q0.125 0 0.205-0.080t0.080-0.205zM12.571 10.286q0-0.473-0.335-0.808t-0.808-0.335-0.808 0.335-0.335 0.808 0.335 0.808 0.808 0.335 0.808-0.335 0.335-0.808zM14.857 8q0-0.473-0.335-0.808t-0.808-0.335-0.808 0.335-0.335 0.808 0.335 0.808 0.808 0.335 0.808-0.335 0.335-0.808zM17.143 9.143q0 1.893-1.339 3.232t-3.232 1.339q-1.714 0-3.018-1.143h-1.964q-1.304 1.143-3.018 1.143-1.893 0-3.232-1.339t-1.339-3.232 1.339-3.232 3.232-1.339h8q1.893 0 3.232 1.339t1.339 3.232z"
       fill="#f5f5f5"
       id="path9964"
       style="fill:#94de35;fill-opacity:1" />
  </g>
  <g
     transform="translate(313 0)"
     id="g9966">
    <path
       d="M12.438 10.848q-0.348 1.116-1.098 2.232-1.152 1.75-2.295 1.75-0.438 0-1.25-0.286-0.768-0.286-1.348-0.286-0.545 0-1.268 0.295-0.723 0.304-1.179 0.304-1.357 0-2.688-2.313-1.313-2.33-1.313-4.491 0-2.036 1.009-3.339 1-1.286 2.536-1.286 0.643 0 1.58 0.268 0.929 0.268 1.232 0.268 0.402 0 1.277-0.304 0.911-0.304 1.545-0.304 1.063 0 1.902 0.58 0.464 0.321 0.929 0.893-0.705 0.598-1.018 1.054-0.58 0.839-0.58 1.848 0 1.107 0.616 1.991t1.411 1.125zM9.080 0.375q0 0.545-0.259 1.214-0.268 0.67-0.83 1.232-0.482 0.482-0.964 0.643-0.33 0.098-0.929 0.152 0.027-1.33 0.696-2.295 0.661-0.955 2.232-1.321 0.009 0.027 0.022 0.098t0.022 0.098q0 0.036 0.004 0.089t0.004 0.089z"
       fill="#f5f5f5"
       id="path9968" />
  </g>
  <g
     transform="translate(342 0)"
     id="g9970">
    <path
       d="M6.089 8.982v5.813l-6.089-0.839v-4.973h6.089zM6.089 2.348v5.884h-6.089v-5.045zM14.857 8.982v7.018l-8.098-1.116v-5.902h8.098zM14.857 1.143v7.089h-8.098v-5.973z"
       fill="#f5f5f5"
       id="path9972" />
  </g>
  <g
     transform="translate(373 0)"
     id="g9974">
    <path
       d="M5.92 3.67q-0.098 0.009-0.138 0.094t-0.076 0.085q-0.045 0.009-0.045-0.045 0-0.107 0.17-0.134h0.089zM6.696 3.795q-0.036 0.009-0.103-0.058t-0.156-0.040q0.214-0.098 0.286 0.018 0.027 0.054-0.027 0.080zM3.563 7.607q-0.036-0.009-0.054 0.027t-0.040 0.112-0.049 0.121-0.089 0.116q-0.063 0.089-0.009 0.107 0.036 0.009 0.112-0.063t0.112-0.161q0.009-0.027 0.018-0.063t0.018-0.054 0.013-0.040 0.004-0.036v-0.027t-0.009-0.022-0.027-0.018zM11.196 10.813q0-0.161-0.491-0.375 0.036-0.134 0.067-0.246t0.045-0.232 0.027-0.192 0.004-0.201-0.009-0.174-0.031-0.196-0.036-0.183-0.045-0.223-0.049-0.237q-0.089-0.429-0.42-0.92t-0.643-0.67q0.214 0.179 0.509 0.741 0.777 1.446 0.482 2.482-0.098 0.357-0.446 0.375-0.277 0.036-0.344-0.165t-0.071-0.746-0.103-0.955q-0.080-0.348-0.174-0.616t-0.174-0.406-0.138-0.219-0.116-0.134-0.067-0.063q-0.125-0.554-0.277-0.92t-0.263-0.5-0.21-0.295-0.134-0.357q-0.036-0.188 0.054-0.478t0.040-0.442-0.397-0.223q-0.134-0.027-0.397-0.161t-0.317-0.143q-0.071-0.009-0.098-0.232t0.071-0.455 0.321-0.241q0.33-0.027 0.455 0.268t0.036 0.518q-0.098 0.17-0.018 0.237t0.268 0.004q0.116-0.036 0.116-0.321v-0.33q-0.045-0.268-0.121-0.446t-0.188-0.272-0.21-0.134-0.241-0.067q-0.955 0.071-0.795 1.196 0 0.134-0.009 0.134-0.080-0.080-0.263-0.094t-0.295 0.004-0.138-0.045q0.009-0.509-0.143-0.804t-0.402-0.304q-0.241-0.009-0.371 0.246t-0.147 0.531q-0.009 0.134 0.031 0.33t0.116 0.335 0.138 0.121q0.089-0.027 0.143-0.125 0.036-0.080-0.063-0.071-0.063 0-0.138-0.129t-0.085-0.299q-0.009-0.196 0.080-0.33t0.304-0.125q0.152 0 0.241 0.188t0.085 0.348-0.013 0.196q-0.196 0.134-0.277 0.259-0.071 0.107-0.246 0.21t-0.183 0.112q-0.116 0.125-0.138 0.241t0.067 0.161q0.125 0.071 0.223 0.174t0.143 0.17 0.165 0.116 0.317 0.058q0.42 0.018 0.911-0.134 0.018-0.009 0.205-0.063t0.308-0.094 0.263-0.116 0.188-0.156q0.080-0.125 0.179-0.071 0.045 0.027 0.058 0.076t-0.027 0.107-0.147 0.085q-0.179 0.054-0.504 0.192t-0.406 0.174q-0.393 0.17-0.625 0.205-0.223 0.045-0.705-0.018-0.089-0.018-0.080 0.018t0.152 0.17q0.223 0.205 0.598 0.196 0.152-0.009 0.321-0.063t0.321-0.125 0.299-0.156 0.268-0.152 0.219-0.107 0.156-0.022 0.076 0.098q0 0.018-0.009 0.040t-0.036 0.045-0.054 0.040-0.076 0.045-0.080 0.040-0.089 0.045-0.085 0.040q-0.25 0.125-0.603 0.393t-0.594 0.384-0.438 0.009q-0.188-0.098-0.563-0.652-0.196-0.277-0.223-0.196-0.009 0.027-0.009 0.089 0 0.223-0.134 0.504t-0.263 0.496-0.188 0.518 0.103 0.563q-0.205 0.054-0.558 0.804t-0.424 1.259q-0.018 0.161-0.013 0.616t-0.049 0.527q-0.071 0.214-0.259 0.027-0.286-0.277-0.321-0.839-0.018-0.25 0.036-0.5 0.036-0.17-0.009-0.161l-0.036 0.045q-0.321 0.58 0.089 1.482 0.045 0.107 0.223 0.25t0.214 0.179q0.179 0.205 0.929 0.808t0.83 0.683q0.143 0.134 0.156 0.339t-0.125 0.384-0.406 0.205q0.071 0.134 0.259 0.397t0.25 0.482 0.063 0.629q0.411-0.214 0.063-0.821-0.036-0.071-0.094-0.143t-0.085-0.107-0.018-0.054q0.027-0.045 0.116-0.085t0.179 0.022q0.411 0.464 1.482 0.321 1.188-0.134 1.58-0.777 0.205-0.339 0.304-0.268 0.107 0.054 0.089 0.464-0.009 0.223-0.205 0.821-0.080 0.205-0.054 0.335t0.214 0.138q0.027-0.17 0.129-0.688t0.121-0.804q0.018-0.188-0.058-0.656t-0.067-0.866 0.205-0.629q0.134-0.161 0.455-0.161 0.009-0.33 0.308-0.473t0.647-0.094 0.536 0.201zM5.589 3.429q0.027-0.152-0.022-0.268t-0.103-0.134q-0.080-0.018-0.080 0.063 0.018 0.045 0.045 0.054 0.089 0 0.063 0.134-0.027 0.179 0.071 0.179 0.027 0 0.027-0.027zM9.33 5.188q-0.018-0.071-0.058-0.103t-0.116-0.045-0.129-0.049q-0.045-0.027-0.085-0.071t-0.063-0.071-0.049-0.058-0.036-0.036-0.036 0.013q-0.125 0.143 0.063 0.388t0.348 0.281q0.080 0.009 0.129-0.071t0.031-0.179zM7.741 3.286q0-0.098-0.045-0.174t-0.098-0.112-0.080-0.027q-0.125 0.009-0.063 0.063l0.036 0.018q0.125 0.036 0.161 0.277 0 0.027 0.071-0.018zM8.223 1.205q0-0.018-0.022-0.045t-0.080-0.063-0.085-0.054q-0.134-0.134-0.214-0.134-0.080 0.009-0.103 0.067t-0.009 0.116-0.004 0.112q-0.009 0.036-0.054 0.094t-0.054 0.080 0.027 0.076q0.036 0.027 0.071 0t0.098-0.080 0.134-0.080q0.009-0.009 0.080-0.009t0.134-0.018 0.080-0.063zM13.268 13.179q0.179 0.107 0.277 0.219t0.107 0.214-0.022 0.201-0.138 0.196-0.21 0.174-0.268 0.165-0.281 0.147-0.286 0.138-0.241 0.116q-0.339 0.17-0.763 0.5t-0.674 0.571q-0.152 0.143-0.607 0.174t-0.795-0.129q-0.161-0.080-0.263-0.21t-0.147-0.228-0.196-0.174-0.42-0.085q-0.393-0.009-1.161-0.009-0.17 0-0.509 0.013t-0.518 0.022q-0.393 0.009-0.71 0.134t-0.478 0.268-0.388 0.254-0.478 0.103q-0.259-0.009-0.991-0.277t-1.304-0.384q-0.17-0.036-0.455-0.085t-0.446-0.080-0.353-0.085-0.299-0.129-0.152-0.174q-0.089-0.205 0.063-0.594t0.161-0.487q0.009-0.143-0.036-0.357t-0.089-0.379-0.040-0.326 0.094-0.241q0.125-0.107 0.509-0.125t0.536-0.107q0.268-0.161 0.375-0.313t0.107-0.455q0.188 0.652-0.286 0.946-0.286 0.179-0.741 0.134-0.304-0.027-0.384 0.089-0.116 0.134 0.045 0.509 0.018 0.054 0.071 0.161t0.076 0.161 0.040 0.152 0.009 0.196q0 0.134-0.152 0.438t-0.125 0.429q0.027 0.152 0.33 0.232 0.179 0.054 0.754 0.165t0.888 0.183q0.214 0.054 0.661 0.196t0.737 0.205 0.496 0.036q0.384-0.054 0.576-0.25t0.205-0.429-0.067-0.522-0.17-0.464-0.179-0.326q-1.080-1.696-1.509-2.161-0.607-0.661-1.009-0.357-0.098 0.080-0.134-0.134-0.027-0.143-0.018-0.339 0.009-0.259 0.089-0.464t0.214-0.42 0.196-0.375q0.071-0.188 0.237-0.643t0.263-0.696 0.268-0.545 0.348-0.482q0.982-1.277 1.107-1.741-0.107-1-0.143-2.768-0.018-0.804 0.214-1.353t0.946-0.933q0.348-0.188 0.929-0.188 0.473-0.009 0.946 0.121t0.795 0.371q0.509 0.375 0.817 1.085t0.263 1.317q-0.045 0.848 0.268 1.911 0.304 1.009 1.188 1.946 0.491 0.527 0.888 1.455t0.531 1.705q0.071 0.438 0.045 0.754t-0.107 0.496-0.179 0.196q-0.089 0.018-0.21 0.17t-0.241 0.317-0.362 0.299-0.545 0.125q-0.161-0.009-0.281-0.045t-0.201-0.121-0.121-0.138-0.103-0.183-0.080-0.174q-0.196-0.33-0.366-0.268t-0.25 0.438 0.063 0.866q0.179 0.625 0.009 1.741-0.089 0.58 0.161 0.897t0.652 0.295 0.759-0.317q0.527-0.438 0.799-0.594t0.924-0.379q0.473-0.161 0.688-0.326t0.165-0.308-0.223-0.254-0.46-0.21q-0.295-0.098-0.442-0.429t-0.134-0.647 0.138-0.424q0.009 0.277 0.071 0.504t0.129 0.362 0.183 0.254 0.188 0.17 0.192 0.116 0.147 0.085z"
       fill="#f5f5f5"
       id="path9976" />
  </g>
  <g
     transform="translate(403 0)"
     id="g9978">
    <path
       d="M17.143 10.286q0 1.42-1.004 2.424t-2.424 1.004h-9.714q-1.652 0-2.826-1.174t-1.174-2.826q0-1.179 0.634-2.156t1.67-1.46q-0.018-0.25-0.018-0.384 0-1.893 1.339-3.232t3.232-1.339q1.411 0 2.558 0.786t1.674 2.054q0.625-0.554 1.482-0.554 0.946 0 1.616 0.67t0.67 1.616q0 0.67-0.366 1.232 1.152 0.268 1.902 1.201t0.75 2.138z"
       fill="#f5f5f5"
       id="path9980"
       style="fill:#94de35;fill-opacity:1" />
  </g>
  <g
     transform="translate(436 0)"
     id="g9982">
    <path
       d="M12.571 8.83v2.313q0 1.063-0.754 1.817t-1.817 0.754h-7.429q-1.063 0-1.817-0.754t-0.754-1.817v-7.429q0-1.063 0.754-1.817t1.817-0.754h2.277q0.116 0 0.201 0.085t0.085 0.201q0 0.241-0.232 0.286-0.688 0.232-1.188 0.536-0.089 0.036-0.143 0.036h-1q-0.589 0-1.009 0.42t-0.42 1.009v7.429q0 0.589 0.42 1.009t1.009 0.42h7.429q0.589 0 1.009-0.42t0.42-1.009v-1.911q0-0.17 0.161-0.259 0.25-0.116 0.482-0.33 0.143-0.143 0.313-0.071 0.188 0.080 0.188 0.259zM14.688 4.402l-3.429 3.429q-0.161 0.17-0.402 0.17-0.107 0-0.223-0.045-0.348-0.152-0.348-0.527v-1.714h-1.429q-2.884 0-3.911 1.17-1.063 1.223-0.661 4.223 0.027 0.205-0.179 0.304-0.071 0.018-0.107 0.018-0.143 0-0.232-0.116-0.089-0.125-0.188-0.277t-0.353-0.612-0.442-0.888-0.344-1.018-0.156-1.089q0-0.438 0.031-0.813t0.125-0.804 0.25-0.786 0.42-0.728 0.612-0.661 0.844-0.549 1.112-0.433 1.424-0.272 1.754-0.098h1.429v-1.714q0-0.375 0.348-0.527 0.116-0.045 0.223-0.045 0.232 0 0.402 0.17l3.429 3.429q0.17 0.17 0.17 0.402t-0.17 0.402z"
       fill="#f5f5f5"
       id="path9984" />
  </g>
  <g
     transform="translate(467 0)"
     id="g9986">
    <path
       d="M5.714 13.714q0 0.473-0.335 0.808t-0.808 0.335-0.808-0.335-0.335-0.808 0.335-0.808 0.808-0.335 0.808 0.335 0.335 0.808zM13.714 13.714q0 0.473-0.335 0.808t-0.808 0.335-0.808-0.335-0.335-0.808 0.335-0.808 0.808-0.335 0.808 0.335 0.335 0.808zM14.857 4v4.571q0 0.214-0.143 0.379t-0.366 0.192l-9.321 1.089q0.009 0.063 0.040 0.192t0.054 0.237 0.022 0.196q0 0.143-0.214 0.571h8.214q0.232 0 0.402 0.17t0.17 0.402-0.17 0.402-0.402 0.17h-9.143q-0.232 0-0.402-0.17t-0.17-0.402q0-0.125 0.098-0.353t0.263-0.531 0.183-0.339l-1.58-7.348h-1.821q-0.232 0-0.402-0.17t-0.17-0.402 0.17-0.402 0.402-0.17h2.286q0.143 0 0.254 0.058t0.179 0.138 0.116 0.219 0.067 0.237 0.049 0.263 0.040 0.228h10.723q0.232 0 0.402 0.17t0.17 0.402z"
       fill="#f5f5f5"
       id="path9988" />
  </g>
  <g
     transform="matrix(0.49996875,0,0,0.49996875,0,38.857429)"
     id="g9990">
    <path
       d="m 12.571,8.286 v 2.857 q 0,1.063 -0.754,1.817 Q 11.063,13.714 10,13.714 H 2.571 Q 1.508,13.714 0.754,12.96 0,12.206 0,11.143 V 3.714 Q 0,2.651 0.754,1.897 1.508,1.143 2.571,1.143 h 6.286 q 0.125,0 0.205,0.08 0.08,0.08 0.08,0.205 v 0.571 q 0,0.125 -0.08,0.205 -0.08,0.08 -0.205,0.08 H 2.571 q -0.589,0 -1.009,0.42 -0.42,0.42 -0.42,1.009 v 7.429 q 0,0.589 0.42,1.009 0.42,0.42 1.009,0.42 H 10 q 0.589,0 1.009,-0.42 0.42,-0.42 0.42,-1.009 V 8.285 q 0,-0.125 0.08,-0.205 Q 11.589,8 11.714,8 h 0.571 q 0.125,0 0.205,0.08 0.08,0.08 0.08,0.205 z M 16,0.571 v 4.571 q 0,0.232 -0.17,0.402 -0.17,0.17 -0.402,0.17 -0.232,0 -0.402,-0.17 L 13.455,3.973 7.634,9.794 Q 7.545,9.883 7.429,9.883 7.313,9.883 7.224,9.794 L 6.206,8.776 Q 6.117,8.687 6.117,8.571 6.117,8.455 6.206,8.366 L 12.027,2.545 10.456,0.974 q -0.17,-0.17 -0.17,-0.402 0,-0.232 0.17,-0.402 Q 10.626,0 10.858,0 h 4.571 q 0.232,0 0.402,0.17 0.17,0.17 0.17,0.402 z"
       id="path9992"
       inkscape:connector-curvature="0"
       style="fill:#1f98df;fill-opacity:1" />
  </g>
  <g
     transform="translate(32 32)"
     id="g9994">
    <path
       d="M3.429 10.571v0.571q0 0.116-0.085 0.201t-0.201 0.085h-0.571q-0.116 0-0.201-0.085t-0.085-0.201v-0.571q0-0.116 0.085-0.201t0.201-0.085h0.571q0.116 0 0.201 0.085t0.085 0.201zM3.429 8.286v0.571q0 0.116-0.085 0.201t-0.201 0.085h-0.571q-0.116 0-0.201-0.085t-0.085-0.201v-0.571q0-0.116 0.085-0.201t0.201-0.085h0.571q0.116 0 0.201 0.085t0.085 0.201zM3.429 6v0.571q0 0.116-0.085 0.201t-0.201 0.085h-0.571q-0.116 0-0.201-0.085t-0.085-0.201v-0.571q0-0.116 0.085-0.201t0.201-0.085h0.571q0.116 0 0.201 0.085t0.085 0.201zM13.714 10.571v0.571q0 0.116-0.085 0.201t-0.201 0.085h-8.571q-0.116 0-0.201-0.085t-0.085-0.201v-0.571q0-0.116 0.085-0.201t0.201-0.085h8.571q0.116 0 0.201 0.085t0.085 0.201zM13.714 8.286v0.571q0 0.116-0.085 0.201t-0.201 0.085h-8.571q-0.116 0-0.201-0.085t-0.085-0.201v-0.571q0-0.116 0.085-0.201t0.201-0.085h8.571q0.116 0 0.201 0.085t0.085 0.201zM13.714 6v0.571q0 0.116-0.085 0.201t-0.201 0.085h-8.571q-0.116 0-0.201-0.085t-0.085-0.201v-0.571q0-0.116 0.085-0.201t0.201-0.085h8.571q0.116 0 0.201 0.085t0.085 0.201zM14.857 12.286v-7.429q0-0.116-0.085-0.201t-0.201-0.085h-13.143q-0.116 0-0.201 0.085t-0.085 0.201v7.429q0 0.116 0.085 0.201t0.201 0.085h13.143q0.116 0 0.201-0.085t0.085-0.201zM16 2.571v9.714q0 0.589-0.42 1.009t-1.009 0.42h-13.143q-0.589 0-1.009-0.42t-0.42-1.009v-9.714q0-0.589 0.42-1.009t1.009-0.42h13.143q0.589 0 1.009 0.42t0.42 1.009z"
       fill="#f5f5f5"
       id="path9996" />
  </g>
  <g
     transform="translate(64 32)"
     id="g9998">
    <path
       d="M13 10.857q0-0.357-0.25-0.607l-1.857-1.857q-0.25-0.25-0.607-0.25-0.375 0-0.643 0.286 0.027 0.027 0.17 0.165t0.192 0.192 0.134 0.17 0.116 0.228 0.031 0.246q0 0.357-0.25 0.607t-0.607 0.25q-0.134 0-0.246-0.031t-0.228-0.116-0.17-0.134-0.192-0.192-0.165-0.17q-0.295 0.277-0.295 0.652 0 0.357 0.25 0.607l1.839 1.848q0.241 0.241 0.607 0.241 0.357 0 0.607-0.232l1.313-1.304q0.25-0.25 0.25-0.598zM6.723 4.563q0-0.357-0.25-0.607l-1.839-1.848q-0.25-0.25-0.607-0.25-0.348 0-0.607 0.241l-1.313 1.304q-0.25 0.25-0.25 0.598 0 0.357 0.25 0.607l1.857 1.857q0.241 0.241 0.607 0.241 0.375 0 0.643-0.277-0.027-0.027-0.17-0.165t-0.192-0.192-0.134-0.17-0.116-0.228-0.031-0.246q0-0.357 0.25-0.607t0.607-0.25q0.134 0 0.246 0.031t0.228 0.116 0.17 0.134 0.192 0.192 0.165 0.17q0.295-0.277 0.295-0.652zM14.714 10.857q0 1.071-0.759 1.813l-1.313 1.304q-0.741 0.741-1.813 0.741-1.080 0-1.821-0.759l-1.839-1.848q-0.741-0.741-0.741-1.813 0-1.098 0.786-1.866l-0.786-0.786q-0.768 0.786-1.857 0.786-1.071 0-1.821-0.75l-1.857-1.857q-0.75-0.75-0.75-1.821t0.759-1.813l1.313-1.304q0.741-0.741 1.813-0.741 1.080 0 1.821 0.759l1.839 1.848q0.741 0.741 0.741 1.813 0 1.098-0.786 1.866l0.786 0.786q0.768-0.786 1.857-0.786 1.071 0 1.821 0.75l1.857 1.857q0.75 0.75 0.75 1.821z"
       fill="#f5f5f5"
       id="path10000" />
  </g>
  <g
     transform="translate(95 32)"
     id="g10002">
    <path
       d="M1.143 14.857h2.571v-2.571h-2.571v2.571zM4.286 14.857h2.857v-2.571h-2.857v2.571zM1.143 11.714h2.571v-2.857h-2.571v2.857zM4.286 11.714h2.857v-2.857h-2.857v2.857zM1.143 8.286h2.571v-2.571h-2.571v2.571zM7.714 14.857h2.857v-2.571h-2.857v2.571zM4.286 8.286h2.857v-2.571h-2.857v2.571zM11.143 14.857h2.571v-2.571h-2.571v2.571zM7.714 11.714h2.857v-2.857h-2.857v2.857zM4.571 4v-2.571q0-0.116-0.085-0.201t-0.201-0.085h-0.571q-0.116 0-0.201 0.085t-0.085 0.201v2.571q0 0.116 0.085 0.201t0.201 0.085h0.571q0.116 0 0.201-0.085t0.085-0.201zM11.143 11.714h2.571v-2.857h-2.571v2.857zM7.714 8.286h2.857v-2.571h-2.857v2.571zM11.143 8.286h2.571v-2.571h-2.571v2.571zM11.429 4v-2.571q0-0.116-0.085-0.201t-0.201-0.085h-0.571q-0.116 0-0.201 0.085t-0.085 0.201v2.571q0 0.116 0.085 0.201t0.201 0.085h0.571q0.116 0 0.201-0.085t0.085-0.201zM14.857 3.429v11.429q0 0.464-0.339 0.804t-0.804 0.339h-12.571q-0.464 0-0.804-0.339t-0.339-0.804v-11.429q0-0.464 0.339-0.804t0.804-0.339h1.143v-0.857q0-0.589 0.42-1.009t1.009-0.42h0.571q0.589 0 1.009 0.42t0.42 1.009v0.857h3.429v-0.857q0-0.589 0.42-1.009t1.009-0.42h0.571q0.589 0 1.009 0.42t0.42 1.009v0.857h1.143q0.464 0 0.804 0.339t0.339 0.804z"
       fill="#f5f5f5"
       id="path10004" />
  </g>
  <g
     transform="translate(127 32)"
     id="g10006">
    <path
       d="M1.143 14.857h12.571v-9.143h-12.571v9.143zM4.571 4v-2.571q0-0.125-0.080-0.205t-0.205-0.080h-0.571q-0.125 0-0.205 0.080t-0.080 0.205v2.571q0 0.125 0.080 0.205t0.205 0.080h0.571q0.125 0 0.205-0.080t0.080-0.205zM11.429 4v-2.571q0-0.125-0.080-0.205t-0.205-0.080h-0.571q-0.125 0-0.205 0.080t-0.080 0.205v2.571q0 0.125 0.080 0.205t0.205 0.080h0.571q0.125 0 0.205-0.080t0.080-0.205zM14.857 3.429v11.429q0 0.464-0.339 0.804t-0.804 0.339h-12.571q-0.464 0-0.804-0.339t-0.339-0.804v-11.429q0-0.464 0.339-0.804t0.804-0.339h1.143v-0.857q0-0.589 0.42-1.009t1.009-0.42h0.571q0.589 0 1.009 0.42t0.42 1.009v0.857h3.429v-0.857q0-0.589 0.42-1.009t1.009-0.42h0.571q0.589 0 1.009 0.42t0.42 1.009v0.857h1.143q0.464 0 0.804 0.339t0.339 0.804z"
       fill="#f5f5f5"
       id="path10008" />
  </g>
  <g
     transform="translate(158 32)"
     id="g10010">
    <path
       d="M2.286 12q0-0.232-0.17-0.402t-0.402-0.17-0.402 0.17-0.17 0.402 0.17 0.402 0.402 0.17 0.402-0.17 0.17-0.402zM12.571 6.857q0-0.455-0.348-0.799t-0.795-0.344h-3.143q0-0.518 0.429-1.424t0.429-1.433q0-0.875-0.286-1.295t-1.143-0.42q-0.232 0.232-0.339 0.759t-0.272 1.121-0.531 0.978q-0.196 0.205-0.688 0.813-0.036 0.045-0.205 0.268t-0.281 0.366-0.308 0.379-0.357 0.393-0.344 0.317-0.357 0.241-0.317 0.080h-0.286v5.714h0.286q0.116 0 0.281 0.027t0.295 0.058 0.339 0.098 0.313 0.103 0.317 0.112 0.259 0.094q1.884 0.652 3.054 0.652h1.080q1.714 0 1.714-1.491 0-0.232-0.045-0.5 0.268-0.143 0.424-0.469t0.156-0.656-0.161-0.616q0.473-0.446 0.473-1.063 0-0.223-0.089-0.496t-0.223-0.424q0.286-0.009 0.478-0.42t0.192-0.723zM13.714 6.848q0 0.795-0.438 1.455 0.080 0.295 0.080 0.616 0 0.688-0.339 1.286 0.027 0.188 0.027 0.384 0 0.902-0.536 1.589 0.009 1.241-0.759 1.96t-2.027 0.719h-1.152q-0.857 0-1.692-0.201t-1.933-0.585q-1.036-0.357-1.232-0.357h-2.571q-0.473 0-0.808-0.335t-0.335-0.808v-5.714q0-0.473 0.335-0.808t0.808-0.335h2.446q0.321-0.214 1.223-1.384 0.518-0.67 0.955-1.143 0.214-0.223 0.317-0.763t0.272-1.129 0.554-0.964q0.348-0.33 0.804-0.33 0.75 0 1.348 0.29t0.911 0.906 0.313 1.661q0 0.83-0.429 1.714h1.571q0.929 0 1.607 0.679t0.679 1.598z"
       fill="#f5f5f5"
       id="path10012" />
  </g>
  <g
     transform="translate(188 32)"
     id="g10014">
    <path
       d="M2.286 4q0-0.232-0.17-0.402t-0.402-0.17-0.402 0.17-0.17 0.402 0.17 0.402 0.402 0.17 0.402-0.17 0.17-0.402zM12.571 9.143q0-0.313-0.192-0.723t-0.478-0.42q0.134-0.152 0.223-0.424t0.089-0.496q0-0.616-0.473-1.063 0.161-0.286 0.161-0.616t-0.156-0.656-0.424-0.469q0.045-0.268 0.045-0.5 0-0.759-0.438-1.125t-1.214-0.366h-1.143q-1.17 0-3.054 0.652-0.045 0.018-0.259 0.094t-0.317 0.112-0.313 0.103-0.339 0.098-0.295 0.058-0.281 0.027h-0.286v5.714h0.286q0.143 0 0.317 0.080t0.357 0.241 0.344 0.317 0.357 0.393 0.308 0.379 0.281 0.366 0.205 0.268q0.491 0.607 0.688 0.813 0.366 0.384 0.531 0.978t0.272 1.121 0.339 0.759q0.857 0 1.143-0.42t0.286-1.295q0-0.527-0.429-1.433t-0.429-1.424h3.143q0.446 0 0.795-0.344t0.348-0.799zM13.714 9.152q0 0.92-0.679 1.598t-1.607 0.679h-1.571q0.429 0.884 0.429 1.714 0 1.054-0.313 1.661-0.313 0.616-0.911 0.906t-1.348 0.29q-0.455 0-0.804-0.33-0.304-0.295-0.482-0.732t-0.228-0.808-0.156-0.754-0.277-0.571q-0.429-0.446-0.955-1.134-0.902-1.17-1.223-1.384h-2.446q-0.473 0-0.808-0.335t-0.335-0.808v-5.714q0-0.473 0.335-0.808t0.808-0.335h2.571q0.196 0 1.232-0.357 1.143-0.393 1.991-0.589t1.786-0.196h1q1.25 0 2.022 0.705t0.763 1.929v0.045q0.536 0.688 0.536 1.589 0 0.196-0.027 0.384 0.339 0.598 0.339 1.286 0 0.321-0.080 0.616 0.438 0.661 0.438 1.455z"
       fill="#f5f5f5"
       id="path10016" />
  </g>
</svg>
