<svg class="icon" xmlns="http://www.w3.org/2000/svg" viewBox="0 0 612 612">
    <path d="M305.999,101.393c-112.821,0-204.606,91.786-204.606,204.606s91.786,204.606,204.606,204.606 s204.606-91.786,204.606-204.606S418.82,101.393,305.999,101.393z M305.999,482.403c-97.269,0-176.404-79.135-176.404-176.404 c0-97.271,79.135-176.404,176.404-176.404c97.271,0,176.404,79.135,176.404,176.404 C482.405,403.27,403.27,482.403,305.999,482.403z"/>
    <path d="M199.403,263.555c-7.788,0-14.101,6.313-14.101,14.101v17.123c0,7.788,6.313,14.101,14.101,14.101 s14.101-6.313,14.101-14.101v-17.123C213.504,269.868,207.191,263.555,199.403,263.555z"/>
    <path d="M412.597,263.555c-7.788,0-14.101,6.313-14.101,14.101v17.123c0,7.788,6.313,14.101,14.101,14.101 s14.101-6.313,14.101-14.101v-17.123C426.698,269.868,420.387,263.555,412.597,263.555z"/>
    <path d="M348.435,301.696c-7.582-1.767-15.169,2.935-16.945,10.515c-2.78,11.879-13.263,20.177-25.491,20.177 c-12.228,0-22.709-8.297-25.491-20.177c-1.775-7.582-9.359-12.284-16.943-10.515c-7.582,1.775-12.29,9.361-10.515,16.945 c5.783,24.699,27.557,41.951,52.951,41.951c25.394,0,47.168-17.25,52.951-41.951C360.725,311.059,356.017,303.473,348.435,301.696 z"/>
    <path d="M305.999,80.577c7.788,0,14.101-6.313,14.101-14.101V14.101C320.1,6.313,313.787,0,305.999,0 c-7.788,0-14.101,6.313-14.101,14.101v52.375C291.898,74.264,298.211,80.577,305.999,80.577z"/>
    <path d="M489.641,136.46c3.61,0,7.218-1.378,9.971-4.13l40.156-40.156c5.507-5.505,5.507-14.435,0-19.941 c-5.505-5.505-14.435-5.505-19.941,0l-40.156,40.156c-5.507,5.505-5.507,14.435,0,19.941 C482.423,135.082,486.031,136.46,489.641,136.46z"/>
    <path d="M597.899,291.9h-52.375c-7.788,0-14.101,6.313-14.101,14.101s6.313,14.101,14.101,14.101h52.375 c7.788,0,14.101-6.313,14.101-14.101S605.687,291.9,597.899,291.9z"/>
    <path d="M499.613,479.67c-5.505-5.505-14.435-5.505-19.941,0c-5.507,5.505-5.507,14.435,0,19.941l40.156,40.156 c2.754,2.754,6.362,4.13,9.971,4.13s7.218-1.378,9.971-4.13c5.507-5.505,5.507-14.435,0-19.941L499.613,479.67z"/>
    <path d="M305.999,531.423c-7.788,0-14.101,6.313-14.101,14.101v52.375c0,7.788,6.313,14.101,14.101,14.101 c7.788,0,14.101-6.313,14.101-14.101v-52.375C320.1,537.736,313.789,531.423,305.999,531.423z"/>
    <path d="M112.387,479.67l-40.156,40.156c-5.507,5.508-5.507,14.435,0,19.941c2.754,2.754,6.362,4.13,9.971,4.13 s7.218-1.378,9.971-4.13l40.156-40.156c5.507-5.507,5.507-14.435,0-19.941C126.823,474.164,117.893,474.164,112.387,479.67z"/>
    <path d="M80.577,306.001c0-7.788-6.313-14.101-14.101-14.101H14.101C6.313,291.9,0,298.213,0,306.001s6.313,14.101,14.101,14.101 h52.375C74.264,320.102,80.577,313.789,80.577,306.001z"/>
    <path d="M112.387,132.33c2.754,2.754,6.362,4.13,9.971,4.13c3.608,0,7.218-1.378,9.971-4.13c5.507-5.505,5.507-14.435,0-19.941 L92.175,72.232c-5.503-5.505-14.433-5.505-19.941,0c-5.507,5.505-5.507,14.435,0,19.941L112.387,132.33z"/>
</svg>
