<svg class="icon" xmlns="http://www.w3.org/2000/svg" viewBox="100 100 824 824">
    <g fill="none" stroke="currentColor" stroke-width="30" stroke-linecap="round" stroke-linejoin="round">
        <path d="M456.1 333.6L457.7 295.6A56 17 2.5 0 1 569.6 300.5L567.9 338.4"/>
        <path stroke-width="22" d="M457.7 295.6A56 17 2.5 0 0 569.6 300.5"/>
        <path d="M456 342C454 396 424 442 370 478C320 512 277 550 277 614C277 716 372 792 512 792C652 792 747 716 747 614C747 550 704 512 654 478C600 442 570 396 568 342"/>
        <g stroke-width="20">
        <path d="M479.5 373.5Q477.8 381.5 476.8 385.5Q475.8 389.5 474.7 393.5Q473.6 397.5 472.3 401.5Q471.0 405.5 469.5 409.5Q468.1 413.5 466.4 417.5Q464.8 421.5 463.0 425.5Q461.1 429.5 459.1 433.5Q457.1 437.5 454.9 441.5Q452.7 445.5 450.3 449.5Q447.9 453.5 445.3 457.5Q442.7 461.5 439.8 465.5Q437.0 469.5 434.0 473.5Q430.9 477.5 427.7 481.5Q424.5 485.5 421.1 489.5Q417.8 493.5 414.4 497.5Q411.0 501.5 407.5 505.5Q404.1 509.5 400.6 513.5Q397.1 517.5 393.6 521.5Q390.2 525.5 386.9 529.5Q383.6 533.5 380.5 537.5Q377.3 541.5 374.3 545.5Q371.2 549.5 368.3 553.5Q365.4 557.5 362.7 561.5Q360.0 565.5 357.5 569.5Q355.0 573.5 352.7 577.5Q350.4 581.5 348.4 585.5Q346.4 589.5 344.7 593.5Q343.0 597.5 341.6 601.5Q340.2 605.5 339.1 609.5Q338.1 613.5 337.3 617.5Q336.5 621.5 336.0 625.5Q335.5 629.5 335.2 633.5Q334.9 637.5 334.9 641.5Q334.9 645.5 335.2 649.5Q335.5 653.5 336.0 657.5Q336.5 661.5 337.4 665.5Q338.2 669.5 339.4 673.5Q340.5 677.5 342.0 681.5Q343.5 685.5 345.3 689.5Q347.1 693.5 349.2 697.5Q351.4 701.5 353.9 705.5L356.5 709.5"/>
        <path d="M506.2 359.0Q505.9 367.0 505.8 371.0Q505.6 375.0 505.5 379.0Q505.3 383.0 505.1 387.0Q504.8 391.0 504.5 395.0Q504.2 399.0 503.9 403.0Q503.5 407.0 503.0 411.0Q502.6 415.0 502.0 419.0Q501.5 423.0 500.8 427.0Q500.2 431.0 499.4 435.0Q498.7 439.0 497.8 443.0Q496.9 447.0 495.9 451.0Q494.9 455.0 493.7 459.0Q492.6 463.0 491.3 467.0Q490.0 471.0 488.5 475.0Q487.1 479.0 485.5 483.0Q483.9 487.0 482.2 491.0Q480.5 495.0 478.7 499.0Q476.8 503.0 474.9 507.0Q472.9 511.0 470.9 515.0Q468.9 519.0 466.8 523.0Q464.7 527.0 462.5 531.0Q460.3 535.0 458.1 539.0Q455.9 543.0 453.6 547.0Q451.4 551.0 449.2 555.0Q447.0 559.0 444.8 563.0Q442.6 567.0 440.5 571.0Q438.3 575.0 436.3 579.0Q434.2 583.0 432.3 587.0Q430.3 591.0 428.5 595.0Q426.7 599.0 425.1 603.0Q423.4 607.0 422.0 611.0Q420.5 615.0 419.2 619.0Q417.9 623.0 416.8 627.0Q415.6 631.0 414.6 635.0Q413.7 639.0 412.9 643.0Q412.1 647.0 411.5 651.0Q410.9 655.0 410.5 659.0Q410.1 663.0 409.9 667.0Q409.7 671.0 409.8 675.0Q409.9 679.0 410.2 683.0Q410.5 687.0 411.0 691.0Q411.6 695.0 412.5 699.0Q413.3 703.0 414.5 707.0Q415.6 711.0 417.1 715.0Q418.5 719.0 420.3 723.0Q422.1 727.0 424.3 731.0Q426.4 735.0 429.0 739.0L431.5 743.0"/>
        <path d="M536.7 366.0Q537.8 374.0 538.5 378.0Q539.2 382.0 540.0 386.0Q540.8 390.0 541.7 394.0Q542.5 398.0 543.4 402.0Q544.4 406.0 545.3 410.0Q546.3 414.0 547.2 418.0Q548.2 422.0 549.2 426.0Q550.2 430.0 551.2 434.0Q552.1 438.0 553.1 442.0Q554.1 446.0 555.0 450.0Q556.0 454.0 556.9 458.0Q557.8 462.0 558.7 466.0Q559.6 470.0 560.4 474.0Q561.2 478.0 561.9 482.0Q562.6 486.0 563.2 490.0Q563.7 494.0 564.1 498.0Q564.5 502.0 564.8 506.0Q565.0 510.0 565.0 514.0Q565.1 518.0 565.0 522.0Q564.8 526.0 564.5 530.0Q564.2 534.0 563.7 538.0Q563.2 542.0 562.5 546.0Q561.9 550.0 561.0 554.0Q560.2 558.0 559.2 562.0Q558.2 566.0 557.1 570.0Q556.0 574.0 554.7 578.0Q553.5 582.0 552.1 586.0Q550.8 590.0 549.3 594.0Q547.9 598.0 546.4 602.0Q544.9 606.0 543.4 610.0Q541.9 614.0 540.4 618.0Q538.8 622.0 537.3 626.0Q535.8 630.0 534.4 634.0Q532.9 638.0 531.5 642.0Q530.1 646.0 528.7 650.0Q527.4 654.0 526.1 658.0Q524.8 662.0 523.7 666.0Q522.5 670.0 521.4 674.0Q520.4 678.0 519.4 682.0Q518.4 686.0 517.6 690.0Q516.7 694.0 516.0 698.0Q515.3 702.0 514.7 706.0Q514.1 710.0 513.7 714.0Q513.2 718.0 512.9 722.0Q512.6 726.0 512.4 730.0Q512.2 734.0 512.1 738.0L512.0 742.0"/>
        <path d="M567.6 365.0Q569.5 373.0 570.3 377.0Q571.2 381.0 572.1 385.0Q573.0 389.0 574.0 393.0Q575.0 397.0 576.2 401.0Q577.4 405.0 578.9 409.0Q580.4 413.0 582.3 417.0Q584.3 421.0 586.5 425.0Q588.8 429.0 591.2 433.0Q593.6 437.0 596.1 441.0Q598.6 445.0 601.2 449.0Q603.8 453.0 606.5 457.0Q609.1 461.0 611.9 465.0Q614.6 469.0 617.4 473.0Q620.2 477.0 623.0 481.0Q625.8 485.0 628.4 489.0Q631.1 493.0 633.6 497.0Q636.1 501.0 638.4 505.0Q640.8 509.0 642.9 513.0Q645.0 517.0 646.9 521.0Q648.8 525.0 650.5 529.0Q652.1 533.0 653.5 537.0Q654.9 541.0 656.0 545.0Q657.1 549.0 658.0 553.0Q658.8 557.0 659.4 561.0Q659.9 565.0 660.2 569.0Q660.4 573.0 660.4 577.0Q660.4 581.0 660.1 585.0Q659.8 589.0 659.2 593.0Q658.6 597.0 657.8 601.0Q656.9 605.0 655.9 609.0Q654.8 613.0 653.5 617.0Q652.3 621.0 650.9 625.0Q649.5 629.0 648.0 633.0Q646.5 637.0 644.9 641.0Q643.4 645.0 641.7 649.0Q640.1 653.0 638.3 657.0Q636.6 661.0 634.8 665.0Q633.0 669.0 631.1 673.0Q629.3 677.0 627.3 681.0Q625.4 685.0 623.4 689.0Q621.5 693.0 619.4 697.0Q617.4 701.0 615.3 705.0Q613.1 709.0 610.9 713.0Q608.7 717.0 606.4 721.0Q604.1 725.0 601.6 729.0Q599.2 733.0 596.6 737.0Q593.9 741.0 591.0 745.0L588.1 749.0"/>
        <path d="M575.9 376.1Q579.4 384.1 581.4 388.1Q583.4 392.1 585.7 396.1Q587.9 400.1 590.4 404.1Q592.8 408.1 595.5 412.1Q598.2 416.1 601.1 420.1Q604.0 424.1 607.1 428.1Q610.2 432.1 613.5 436.1Q616.9 440.1 620.4 444.1Q623.9 448.1 627.5 452.1Q631.2 456.1 635.1 460.1Q639.0 464.1 643.1 468.1Q647.1 472.1 651.3 476.1Q655.6 480.1 659.8 484.1Q664.1 488.1 668.3 492.1Q672.5 496.1 676.7 500.1Q680.8 504.1 684.8 508.1Q688.8 512.1 692.7 516.1Q696.6 520.1 700.2 524.1Q703.9 528.1 707.4 532.1Q710.8 536.1 714.0 540.1Q717.2 544.1 720.1 548.1Q723.0 552.1 725.4 556.1Q727.9 560.1 729.9 564.1Q732.0 568.1 733.5 572.1Q735.0 576.1 736.0 580.1Q737.0 584.1 737.3 588.1Q737.7 592.1 737.4 596.1Q737.1 600.1 736.2 604.1Q735.2 608.1 733.6 612.1Q732.0 616.1 729.8 620.1Q727.7 624.1 725.0 628.1Q722.4 632.1 719.2 636.1Q716.1 640.1 712.6 644.1Q709.1 648.1 705.3 652.1Q701.5 656.1 697.4 660.1L693.3 664.1"/>
        </g>
    </g>
</svg>
