<svg class="icon" version="1.0" xmlns="http://www.w3.org/2000/svg" viewBox="100 100 824 824">
  <path d="M495 190.5a72 72 0 0 0-53.8 44.3c-2.5 6.3-2.7 7.7-2.8 24.2v17.5l-3.8 9.5a284 284 0 0 1-32.6 57.4c-16.2 21.8-31.1 36.2-68.8 66.3a1366.7 1366.7 0 0 0-32.7 26.8c-52.6 46.2-79.7 101.3-79.9 162.5-.1 31.2 6.6 58.2 22.8 92.1a241 241 0 0 0 68.3 80.8c25.6 19 62.6 38.4 92.8 48.6 29.5 9.9 60.2 15 96.1 16.1A337.9 337.9 0 0 0 669 801c77.5-39 127.3-104.1 136.6-178.8 4.6-37.1-2-74.9-19.2-110.2-17.7-36.4-38.9-60.1-92.9-104-49.8-40.5-72.9-67.5-92.6-108.5-9.6-19.9-11.8-26.7-10.7-33 1.1-6.1.3-17.3-1.8-25.2A71.4 71.4 0 0 0 535 191c-10-2.4-29.6-2.6-40-.5zm38.7 26a49.7 49.7 0 0 1 33.9 31.5 64.2 64.2 0 0 1 3.4 31.6c-1.5 11.2-.9 13.6 8.6 32.5 13.7 27.7 33 54.1 58.1 79.6 14 14.3 19.6 19.3 44.8 40.3a487 487 0 0 1 57.9 56c21.9 27.6 35.1 53.9 40.6 81 2.4 11.9 3.6 34.6 2.3 43l-.9 5.5-1.8-7.5a233 233 0 0 0-31.5-68.7c-14.2-21.2-23.3-31.8-50.4-58.3-37.9-37-77.6-76.8-85.3-85.3-8.2-9.1-10.6-9.7-16-4.3-5.7 5.7-4.6 9 8.8 25.8 13.1 16.4 24.4 28.5 59.3 63.4 41.5 41.4 55.2 57.5 69.9 82.1a202.9 202.9 0 0 1 25.8 62.6 97.3 97.3 0 0 1 2.2 24.7c0 13.6-.2 15.1-3.3 24a140.3 140.3 0 0 1-17.9 34.5 324.4 324.4 0 0 1-39.9 40.8l-3.3 1.8 2-3.4c3.5-5.9 7.8-19 10.2-30.8a142 142 0 0 0 2.3-34.4 181 181 0 0 0-2.3-36c-9.2-52.5-32-97.5-92.2-182-17.3-24.3-19.3-26.5-23.7-26.5-6.3 0-12.3 5.1-12.3 10.5 0 2.7 2.6 6.9 25 41 32.8 49.9 40.5 62.6 53 87.5 16.6 33 25.3 59.5 29.1 88.5 1.4 10.9.6 35.7-1.5 46.7a118.3 118.3 0 0 1-30.2 59.4c-10.2 10.1-21.3 15.8-46.7 23.9a267.1 267.1 0 0 1-33 8.5c-.5 0 2.3-3.4 6.2-7.7 30-32 47.1-84.3 44.1-134.8A478.2 478.2 0 0 0 601.4 534c-6.6-19.2-11.2-29.4-28.6-64.5a601.3 601.3 0 0 1-18.8-41c-3.5-10.4-7.1-15.5-10.8-15.5-2.1 0-7.2 5.2-7.2 7.3 0 3 6.3 21 18.5 52.8 23.3 60.5 30.9 83.4 40 120.4 7 28.8 8.6 38.7 10.6 64.5 2 26.4-.5 49.4-7.7 71-13.6 40.9-40.2 68.4-78.9 81.5-7.7 2.6-8.5 2.7-22.5 2.1-37.5-1.7-79.4-11.6-106.9-25.2a67.6 67.6 0 0 1-18.3-12.2 110.5 110.5 0 0 1-30.8-53 145 145 0 0 1-3.9-22.7 176 176 0 0 1 4.4-54c8.7-37.6 21.7-63.6 58.7-117.5 25.3-36.8 45.8-71.5 45.8-77.7 0-6.5-8.5-12.2-13.4-8.9-1.2.7-5.8 7.3-10.4 14.7a869.6 869.6 0 0 1-41.9 59.3 379 379 0 0 0-40.7 63.4 227.9 227.9 0 0 0-25.3 112.7c.8 22.6 6.2 46.8 12.8 58.3 1.7 3 1.2 2.8-5.5-2.8a260 260 0 0 1-37.2-39.5c-14.5-21.4-19.7-36.9-19.3-58.2.5-32.5 17.7-73.4 45.4-107.8 7-8.8 23.6-25.8 34-35 44.9-39.5 62.8-58.7 83.1-89.1 7.3-10.9 8.4-13.2 8.4-16.9 0-4.9-3.2-9-8.1-10-3.7-.8-5.6.7-11.2 9-13.6 20.3-37.4 45-70.7 73.5a495.7 495.7 0 0 0-54.2 52 219 219 0 0 0-43 81l-3.3 11.5-.8-8c-.6-7-.2-21.4.8-27.8l1.4-9.3c4.5-30 23.1-64.2 52.9-96.9a511.1 511.1 0 0 1 59.3-52.7c7-5.2 25.5-22.2 36.2-33.2a313.1 313.1 0 0 0 38.7-48.4 321 321 0 0 0 31-59.7c4-9.4 9-20.4 11-24.5 4.7-9.2 5.5-12.2 4-15-2.5-4.7-11-4.5-14.6.3l-1.6 2.2.7-2.5c1-3.3 5-8.6 8.1-10.7 5-3.2 14-1.1 18.3 4.3 5.7 7.2 4.6 14.9-4.4 31.9-11.1 21-15 35-18 65a211 211 0 0 1-10 50.4c-3.1 9.2-3.1 9.6 0 12.6 2.6 2.7 7 3.2 9.5 1.2 5.6-4.5 11.7-23.7 20.4-64.4 4.6-21.6 10-37.4 19.6-57.3 8.3-17.2 10.4-24.4 9.3-31.4a35.5 35.5 0 0 0-16.6-24.6l-5-2.9 3.4-.9c1.9-.6 8.9-1.1 15.6-1.1 10.3-.1 13.4.3 20 2.4z"/>
  <path d="M529 227.7c-4.8 2.4-4.9 5.3-.5 14.3 2.1 4.6 3.5 8.9 3.5 11.3 0 4.7-3.6 13.8-10 25.5-16.2 29.4-21 55.7-19.6 108.6.3 14.4.9 28.3 1.1 31.1 1 9.2 3.6 29.9 5.6 44.5 6.3 44.4 8.1 64 8.3 86 .1 18.4-.9 41.3-1.8 42.9a238.1 238.1 0 0 1-11.1 47.1 182.1 182.1 0 0 1-49.2 73.8c-7.9 7.3-10.2 10-10.7 12.7-1.4 7.1 4.8 14.5 12 14.5 9.5 0 34.1-24.8 49.7-50 11.5-18.7 24.5-53 28.1-74.4 3.9-22.7 4.1-25.3 4.1-59.6 0-29.9-.7-49.3-2-57.3l-1.4-9.7a719.1 719.1 0 0 0-4.6-28.5 998.4 998.4 0 0 1-8.6-58.5c-2.2-22.8 1-58.6 7.2-80.3 3.5-12.4 4-13.6 14.2-35.3 10.8-22.6 12.8-32.8 8.7-43.6-4.6-12.4-14.9-19.1-23-15.1z"/>
  <path d="M549.2 320c-4.4 1.8-5.6 7-5.4 23.4.2 16.4 1.7 26.3 5.8 37.6 4.1 11.6 5.9 14.5 9.9 16.4 4.1 2 7 1.6 10.7-1.4 4.4-3.4 4.3-6-.6-17.3a136.2 136.2 0 0 1-10.1-40.8c-1.8-14.3-2.1-15.4-4.1-17.4-1.7-1.7-2.9-1.8-6.2-.5zM441.3 360.9a43.9 43.9 0 0 0-7.3 14.8c0 2.8 3.3 6.3 5.9 6.3 4.7 0 11.5-14.1 9.5-19.8-1.2-3.5-5.5-4.2-8.1-1.3zM579.2 360.2c-2.6 2.6-.4 12 4.5 18.6 2 2.7 3.1 3.3 5.5 3a7.4 7.4 0 0 0 5-2.9c2-2.6 2-2.7-.1-6.7-4.5-8.9-8.1-13.2-11-13.2-1.5 0-3.2.5-3.9 1.2zM451 407.8c-2.7.8-5.2 3.6-7.5 8.2-4.4 8.9-4.1 12.6 1.5 15.5 6.5 3.4 10.9.8 14.2-8.3 3.1-8.8 2-12.7-4.2-15-1.4-.5-3.2-.7-4-.4zM572.3 407.8c-2.6.4-7.3 5.6-7.3 8 0 2.5 4.8 12.3 7.2 14.9 2.7 2.9 8.1 3 12.5.4 4.6-2.9 4.9-5.2 1.5-12.4-4.7-9.9-7.3-12-13.9-10.9zM479.1 415.8c-2.7 2.6-2.8 3.3-3.5 15.7a302.5 302.5 0 0 1-21.7 100.4A399.6 399.6 0 0 1 424 586a340.6 340.6 0 0 0-24.9 42.1c-7.9 16.9-12.4 42.5-8.7 49.7 3.8 7.4 14.8 8.3 19.2 1.6 1.1-1.5 2.3-6.7 3-12.8 2.3-18.1 7.7-30.9 26.1-60.6a437.3 437.3 0 0 0 28.4-51.3c15.2-33.6 22.5-68.7 23.6-112.9l.6-22.7-3.1-3c-3.8-3.8-5.6-3.9-9.1-.3z"/>
</svg>