<svg class="icon" viewBox="0 0 512 512" xmlns="http://www.w3.org/2000/svg"><path d="m504.808 458.398c-68.268-2.803-136.164-12.478-202.317-28.762 63.685-18.036 131.514-27.175 202.01-27.175 4.142 0 7.5-3.358 7.5-7.5s-3.358-7.5-7.5-7.5c-80.686 0-158.002 11.746-229.803 34.911-1.732-.479-3.469-.938-5.199-1.426-19.935-5.625-40.557-10.665-61.292-14.977-4.06-.848-8.026 1.76-8.87 5.815s1.76 8.027 5.815 8.87c20.394 4.242 40.673 9.197 60.272 14.728 77.599 21.898 157.932 34.685 238.768 38.003.105.004.209.006.313.006 4 0 7.323-3.159 7.488-7.192.171-4.138-3.047-7.631-7.185-7.801z"/><path d="m174.621 399.625c-54.202-9.229-110.429-13.908-167.121-13.908-4.142 0-7.5 3.358-7.5 7.5s3.358 7.5 7.5 7.5c55.851 0 111.231 4.607 164.603 13.695.426.073.85.107 1.268.107 3.589 0 6.762-2.585 7.385-6.242.695-4.084-2.052-7.957-6.135-8.652z"/><path d="m371.789 249.066c.536 3.739 3.744 6.437 7.415 6.437.354 0 .713-.025 1.074-.077 4.1-.588 6.947-4.388 6.36-8.489-2.886-20.132-10.869-39.366-23.086-55.622-2.488-3.312-7.191-3.979-10.501-1.49-3.311 2.488-3.978 7.19-1.49 10.501 10.704 14.245 17.699 31.099 20.228 48.74z"/><path d="m229.151 130.996c-3.481 6.986-6.673 14.034-9.538 20.989-23.941 9.975-44.039 27.383-57.385 49.332l-2.748-15.056c-.744-4.075-4.649-6.772-8.725-6.031-4.075.744-6.775 4.65-6.031 8.725l6.521 35.721c-4.3 12.436-6.643 25.776-6.643 39.656 0 22.94 6.353 44.442 17.422 62.802-25.861-26.364-41.836-62.457-41.836-102.217 0-52.434 28.354-101.122 73.996-127.066 3.601-2.047 4.861-6.625 2.814-10.227-2.047-3.601-6.625-4.86-10.226-2.814-24.32 13.824-44.169 33.516-58.208 56.691l-3.57-13.333c-1.071-4.001-5.183-6.38-9.185-5.305-4.001 1.071-6.376 5.183-5.305 9.185l7.839 29.28c-8.53 19.799-13.156 41.385-13.156 63.589 0 15.982 2.351 31.423 6.707 46.008l-5.657-.752c-4.114-.548-7.877 2.341-8.423 6.446-.546 4.106 2.34 7.877 6.446 8.423l13.301 1.768c24.308 58.177 81.798 99.168 148.687 99.168 79.706 0 146.064-58.203 158.832-134.338l20.929-21.947c2.858-2.998 2.746-7.745-.252-10.604s-7.745-2.747-10.604.252l-7.878 8.262c.015-.895.034-1.788.034-2.686 0-30.664-8.795-60.164-24.562-85.379v-36.12c0-4.142-3.358-7.5-7.5-7.5s-7.5 3.358-7.5 7.5v15.857c-11.796-13.594-25.928-25.317-42.022-34.465-3.601-2.047-8.18-.788-10.226 2.814-2.047 3.601-.787 8.179 2.814 10.227 38.781 22.044 65.069 60.512 72.099 103.742l-5.182-3.629c-3.393-2.376-8.07-1.551-10.446 1.841-2.376 3.393-1.551 8.07 1.841 10.446l15.62 10.938c.032 1.241.063 2.482.063 3.727 0 39.879-16.071 76.07-42.069 102.454 8.189-13.503 13.766-28.539 16.202-44.218.636-4.093-2.167-7.927-6.259-8.563-4.092-.634-7.926 2.167-8.563 6.259-6.969 44.841-42.502 80.453-86.504 88.425 15.229-18.549 38.229-54.157 43.309-104.452 5.754-2.992 16.75-9.931 23.808-22.083 2.081-3.582.863-8.172-2.719-10.252-3.58-2.081-8.172-.863-10.252 2.719-2.74 4.718-6.39 8.398-9.828 11.139.201-22.784-3.372-48.159-12.666-75.94 4.182 2.259 8.242 4.793 12.141 7.629 3.35 2.438 8.04 1.697 10.477-1.653s1.697-8.04-1.653-10.477c-8.86-6.445-18.416-11.587-28.453-15.388-2.673-6.393-5.641-12.899-8.941-19.522-1.847-3.707-6.349-5.215-10.057-3.369-3.708 1.847-5.216 6.35-3.369 10.057 1.24 2.489 2.426 4.958 3.57 7.412-7.904-1.594-16.01-2.412-24.236-2.412-9.482 0-18.713 1.092-27.576 3.154 1.26-2.721 2.552-5.442 3.903-8.154 1.847-3.708.339-8.21-3.369-10.057-3.704-1.844-8.206-.335-10.053 3.372zm68.781 31.478c22.448 57.507 18.837 104.443 7.405 139.281l-14.699-34.115c-1.639-3.804-6.05-5.561-9.855-3.92-3.804 1.639-5.559 6.051-3.92 9.855l20.665 47.962c-4.83 10.399-10.157 19.292-15.21 26.612-2.629-.785-19.729-6.358-34.201-22.17l6.903-18.336c1.459-3.876-.5-8.202-4.376-9.662-3.876-1.458-8.202.5-9.662 4.376l-3.385 8.992c-2.691-4.864-5.022-10.318-6.791-16.434-1.152-3.979-5.311-6.269-9.289-5.12-3.979 1.151-6.271 5.311-5.12 9.289 11.629 40.189 43.058 56.407 56.39 61.614-4.039 4.829-7.392 8.26-9.441 10.242-.749-.015-1.495-.038-2.241-.064-.136-.014-.27-.035-.408-.042-38.721-1.984-71.706-24.444-88.729-56.586 1.215-5.982 6.111-25.214 20.722-37.998 3.117-2.728 3.433-7.466.706-10.583-2.728-3.117-7.466-3.433-10.583-.706-9.451 8.269-15.576 18.393-19.503 27.346-2.415-8.924-3.705-18.305-3.705-27.977 0-58.806 47.842-106.647 106.647-106.647 10.882.001 21.526 1.637 31.68 4.791z"/><path d="m88.753 117.879c1.2.714 2.52 1.054 3.823 1.054 2.555 0 5.047-1.306 6.453-3.656.093-.155 9.511-15.682 29.748-30.954 27.006-20.381 59.502-30.715 96.586-30.715 4.142 0 7.5-3.358 7.5-7.5s-3.358-7.5-7.5-7.5c-28.08 0-51.349 5.707-70.009 13.447l-20.132-7.028c-3.913-1.367-8.188.699-9.553 4.609-1.365 3.911.698 8.188 4.609 9.553l6.167 2.153c-6.619 3.796-12.39 7.718-17.31 11.468-22.337 17.024-32.581 34.094-33.006 34.812-2.106 3.558-.93 8.142 2.624 10.257z"/><path d="m33.746 100.725c.658 0 1.327-.087 1.993-.27l6.361-1.749c-1.757 4.774-3.221 9.909-4.225 15.381-.749 4.074 1.948 7.983 6.021 8.731.458.084.914.125 1.364.125 3.549 0 6.704-2.531 7.368-6.146 5.409-29.445 27.219-48.086 27.438-48.271 3.17-2.654 3.595-7.375.947-10.552-2.652-3.183-7.382-3.612-10.563-.96-.663.553-10.644 9.006-19.63 23.739l-19.057 5.24c-3.994 1.098-6.341 5.226-5.244 9.22.915 3.327 3.934 5.512 7.227 5.512z"/><path d="m377.241 385.979c1.907-.186 37.08-3.896 70.292-28.44h30.717c4.142 0 7.5-3.358 7.5-7.5s-3.358-7.5-7.5-7.5h-13.478c4.842-4.949 9.519-10.447 13.908-16.572 2.413-3.367 1.639-8.052-1.729-10.465-3.368-2.412-8.052-1.638-10.465 1.729-14.872 20.758-33.757 33.625-50.382 41.543l3.411-13.303c1.029-4.012-1.39-8.099-5.403-9.127-4.009-1.028-8.099 1.39-9.127 5.403l-6.14 23.95c-12.98 4.284-22.063 5.292-22.332 5.319-4.117.407-7.128 4.071-6.728 8.189.377 3.876 3.641 6.774 7.456 6.774z"/><path d="m198.402 235.964c.836.3 1.69.442 2.53.442 3.077 0 5.963-1.908 7.061-4.971.064-.177 2.681-7.226 8.719-15.417l22.772 1.572c.176.012.351.019.524.019 3.906 0 7.201-3.027 7.475-6.984.285-4.132-2.833-7.713-6.966-7.999l-9.954-.688c9.815-7.32 23.236-12.685 41.041-11.037 4.123.378 7.777-2.652 8.159-6.777.381-4.125-2.653-7.777-6.777-8.159-30.556-2.826-50.497 11.076-61.842 23.238-12.094 12.965-17.065 26.596-17.271 27.17-1.398 3.9.629 8.194 4.529 9.591z"/></svg>
